%TF.GenerationSoftware,KiCad,Pcbnew,7.0.8*%
%TF.CreationDate,2023-11-11T14:32:38+05:30*%
%TF.ProjectId,DevBoard,44657642-6f61-4726-942e-6b696361645f,rev?*%
%TF.SameCoordinates,Original*%
%TF.FileFunction,Soldermask,Top*%
%TF.FilePolarity,Negative*%
%FSLAX46Y46*%
G04 Gerber Fmt 4.6, Leading zero omitted, Abs format (unit mm)*
G04 Created by KiCad (PCBNEW 7.0.8) date 2023-11-11 14:32:38*
%MOMM*%
%LPD*%
G01*
G04 APERTURE LIST*
G04 Aperture macros list*
%AMRoundRect*
0 Rectangle with rounded corners*
0 $1 Rounding radius*
0 $2 $3 $4 $5 $6 $7 $8 $9 X,Y pos of 4 corners*
0 Add a 4 corners polygon primitive as box body*
4,1,4,$2,$3,$4,$5,$6,$7,$8,$9,$2,$3,0*
0 Add four circle primitives for the rounded corners*
1,1,$1+$1,$2,$3*
1,1,$1+$1,$4,$5*
1,1,$1+$1,$6,$7*
1,1,$1+$1,$8,$9*
0 Add four rect primitives between the rounded corners*
20,1,$1+$1,$2,$3,$4,$5,0*
20,1,$1+$1,$4,$5,$6,$7,0*
20,1,$1+$1,$6,$7,$8,$9,0*
20,1,$1+$1,$8,$9,$2,$3,0*%
G04 Aperture macros list end*
%ADD10C,0.800000*%
%ADD11C,5.400000*%
%ADD12RoundRect,0.102000X-0.850000X-0.450000X0.850000X-0.450000X0.850000X0.450000X-0.850000X0.450000X0*%
%ADD13RoundRect,0.260750X0.129047X-0.353553X0.353553X-0.129047X-0.129047X0.353553X-0.353553X0.129047X0*%
G04 APERTURE END LIST*
D10*
%TO.C,H4*%
X323284200Y-178206400D03*
X321259200Y-180231400D03*
X322691091Y-179638291D03*
D11*
X321259200Y-178206400D03*
D10*
X321259200Y-176181400D03*
X319827309Y-179638291D03*
X322691091Y-176774509D03*
X319234200Y-178206400D03*
X319827309Y-176774509D03*
%TD*%
%TO.C,H3*%
X97478200Y-178114291D03*
X95453200Y-180139291D03*
X96885091Y-179546182D03*
D11*
X95453200Y-178114291D03*
D10*
X95453200Y-176089291D03*
X94021309Y-179546182D03*
X96885091Y-176682400D03*
X93428200Y-178114291D03*
X94021309Y-176682400D03*
%TD*%
%TO.C,H2*%
X320081309Y-111344109D03*
X319488200Y-112776000D03*
X322945091Y-111344109D03*
X320081309Y-114207891D03*
X321513200Y-110751000D03*
D11*
X321513200Y-112776000D03*
D10*
X322945091Y-114207891D03*
X321513200Y-114801000D03*
X323538200Y-112776000D03*
%TD*%
%TO.C,H1*%
X97173400Y-112420400D03*
X95148400Y-114445400D03*
X96580291Y-113852291D03*
D11*
X95148400Y-112420400D03*
D10*
X95148400Y-110395400D03*
X93716509Y-113852291D03*
X96580291Y-110988509D03*
X93123400Y-112420400D03*
X93716509Y-110988509D03*
%TD*%
D12*
%TO.C,LED152*%
X108348800Y-170628400D03*
X108348800Y-173928400D03*
X113248800Y-173928400D03*
X113248800Y-170628400D03*
%TD*%
D13*
%TO.C,C148*%
X293547759Y-160417041D03*
X294749841Y-159214959D03*
%TD*%
%TO.C,C144*%
X257947759Y-160417041D03*
X259149841Y-159214959D03*
%TD*%
D12*
%TO.C,LED59*%
X170648800Y-135028400D03*
X170648800Y-138328400D03*
X175548800Y-138328400D03*
X175548800Y-135028400D03*
%TD*%
D13*
%TO.C,C30*%
X133347759Y-124817041D03*
X134549841Y-123614959D03*
%TD*%
D12*
%TO.C,LED111*%
X188448800Y-152828400D03*
X188448800Y-156128400D03*
X193348800Y-156128400D03*
X193348800Y-152828400D03*
%TD*%
%TO.C,LED87*%
X197348800Y-143928400D03*
X197348800Y-147228400D03*
X202248800Y-147228400D03*
X202248800Y-143928400D03*
%TD*%
%TO.C,LED70*%
X268548800Y-135028400D03*
X268548800Y-138328400D03*
X273448800Y-138328400D03*
X273448800Y-135028400D03*
%TD*%
%TO.C,LED8*%
X161748800Y-117228400D03*
X161748800Y-120528400D03*
X166648800Y-120528400D03*
X166648800Y-117228400D03*
%TD*%
D13*
%TO.C,C132*%
X151147759Y-160417041D03*
X152349841Y-159214959D03*
%TD*%
D12*
%TO.C,LED22*%
X286348800Y-117228400D03*
X286348800Y-120528400D03*
X291248800Y-120528400D03*
X291248800Y-117228400D03*
%TD*%
%TO.C,LED11*%
X188448800Y-117228400D03*
X188448800Y-120528400D03*
X193348800Y-120528400D03*
X193348800Y-117228400D03*
%TD*%
%TO.C,LED168*%
X250748800Y-170628400D03*
X250748800Y-173928400D03*
X255648800Y-173928400D03*
X255648800Y-170628400D03*
%TD*%
%TO.C,LED25*%
X313048800Y-117228400D03*
X313048800Y-120528400D03*
X317948800Y-120528400D03*
X317948800Y-117228400D03*
%TD*%
D13*
%TO.C,C150*%
X311347759Y-160417041D03*
X312549841Y-159214959D03*
%TD*%
%TO.C,C29*%
X124447759Y-124817041D03*
X125649841Y-123614959D03*
%TD*%
%TO.C,C131*%
X142247759Y-160417041D03*
X143449841Y-159214959D03*
%TD*%
D12*
%TO.C,LED66*%
X232948800Y-135028400D03*
X232948800Y-138328400D03*
X237848800Y-138328400D03*
X237848800Y-135028400D03*
%TD*%
D13*
%TO.C,C91*%
X231247759Y-142617041D03*
X232449841Y-141414959D03*
%TD*%
D12*
%TO.C,LED43*%
X250748800Y-126128400D03*
X250748800Y-129428400D03*
X255648800Y-129428400D03*
X255648800Y-126128400D03*
%TD*%
%TO.C,LED13*%
X206248800Y-117228400D03*
X206248800Y-120528400D03*
X211148800Y-120528400D03*
X211148800Y-117228400D03*
%TD*%
%TO.C,LED65*%
X224048800Y-135028400D03*
X224048800Y-138328400D03*
X228948800Y-138328400D03*
X228948800Y-135028400D03*
%TD*%
D13*
%TO.C,C80*%
X133347759Y-142617041D03*
X134549841Y-141414959D03*
%TD*%
D12*
%TO.C,LED44*%
X259648800Y-126128400D03*
X259648800Y-129428400D03*
X264548800Y-129428400D03*
X264548800Y-126128400D03*
%TD*%
D13*
%TO.C,C71*%
X275747759Y-133717041D03*
X276949841Y-132514959D03*
%TD*%
%TO.C,C96*%
X275747759Y-142617041D03*
X276949841Y-141414959D03*
%TD*%
D12*
%TO.C,LED150*%
X313048800Y-161728400D03*
X313048800Y-165028400D03*
X317948800Y-165028400D03*
X317948800Y-161728400D03*
%TD*%
D13*
%TO.C,C68*%
X249047759Y-133717041D03*
X250249841Y-132514959D03*
%TD*%
%TO.C,C125*%
X311347759Y-151517041D03*
X312549841Y-150314959D03*
%TD*%
%TO.C,C10*%
X177847759Y-115917041D03*
X179049841Y-114714959D03*
%TD*%
%TO.C,C55*%
X133347759Y-133717041D03*
X134549841Y-132514959D03*
%TD*%
%TO.C,C141*%
X231247759Y-160417041D03*
X232449841Y-159214959D03*
%TD*%
D12*
%TO.C,LED1*%
X99454800Y-116815600D03*
X99454800Y-120115600D03*
X104354800Y-120115600D03*
X104354800Y-116815600D03*
%TD*%
D13*
%TO.C,C124*%
X302447759Y-151517041D03*
X303649841Y-150314959D03*
%TD*%
%TO.C,C5*%
X133347759Y-115917041D03*
X134549841Y-114714959D03*
%TD*%
%TO.C,C3*%
X115547759Y-115917041D03*
X116749841Y-114714959D03*
%TD*%
%TO.C,C37*%
X195647759Y-124817041D03*
X196849841Y-123614959D03*
%TD*%
D12*
%TO.C,LED119*%
X259648800Y-152828400D03*
X259648800Y-156128400D03*
X264548800Y-156128400D03*
X264548800Y-152828400D03*
%TD*%
D13*
%TO.C,C151*%
X97747759Y-169317041D03*
X98949841Y-168114959D03*
%TD*%
D12*
%TO.C,LED6*%
X143948800Y-117228400D03*
X143948800Y-120528400D03*
X148848800Y-120528400D03*
X148848800Y-117228400D03*
%TD*%
D13*
%TO.C,C51*%
X97747759Y-133717041D03*
X98949841Y-132514959D03*
%TD*%
D12*
%TO.C,LED39*%
X215148800Y-126128400D03*
X215148800Y-129428400D03*
X220048800Y-129428400D03*
X220048800Y-126128400D03*
%TD*%
D13*
%TO.C,C76*%
X97747759Y-142617041D03*
X98949841Y-141414959D03*
%TD*%
D12*
%TO.C,LED55*%
X135048800Y-135028400D03*
X135048800Y-138328400D03*
X139948800Y-138328400D03*
X139948800Y-135028400D03*
%TD*%
D13*
%TO.C,C21*%
X275747759Y-115917041D03*
X276949841Y-114714959D03*
%TD*%
D12*
%TO.C,LED38*%
X206248800Y-126128400D03*
X206248800Y-129428400D03*
X211148800Y-129428400D03*
X211148800Y-126128400D03*
%TD*%
D13*
%TO.C,C59*%
X168947759Y-133717041D03*
X170149841Y-132514959D03*
%TD*%
%TO.C,C99*%
X302447759Y-142617041D03*
X303649841Y-141414959D03*
%TD*%
D12*
%TO.C,LED132*%
X152848800Y-161728400D03*
X152848800Y-165028400D03*
X157748800Y-165028400D03*
X157748800Y-161728400D03*
%TD*%
D13*
%TO.C,C52*%
X106647759Y-133717041D03*
X107849841Y-132514959D03*
%TD*%
%TO.C,C136*%
X186747759Y-160417041D03*
X187949841Y-159214959D03*
%TD*%
%TO.C,C156*%
X142247759Y-169317041D03*
X143449841Y-168114959D03*
%TD*%
%TO.C,C168*%
X249047759Y-169317041D03*
X250249841Y-168114959D03*
%TD*%
%TO.C,C90*%
X222347759Y-142617041D03*
X223549841Y-141414959D03*
%TD*%
D12*
%TO.C,LED139*%
X215148800Y-161728400D03*
X215148800Y-165028400D03*
X220048800Y-165028400D03*
X220048800Y-161728400D03*
%TD*%
%TO.C,LED74*%
X304148800Y-135028400D03*
X304148800Y-138328400D03*
X309048800Y-138328400D03*
X309048800Y-135028400D03*
%TD*%
D13*
%TO.C,C152*%
X106647759Y-169317041D03*
X107849841Y-168114959D03*
%TD*%
D12*
%TO.C,LED173*%
X295248800Y-170628400D03*
X295248800Y-173928400D03*
X300148800Y-173928400D03*
X300148800Y-170628400D03*
%TD*%
%TO.C,LED120*%
X268548800Y-152828400D03*
X268548800Y-156128400D03*
X273448800Y-156128400D03*
X273448800Y-152828400D03*
%TD*%
%TO.C,LED86*%
X188448800Y-143928400D03*
X188448800Y-147228400D03*
X193348800Y-147228400D03*
X193348800Y-143928400D03*
%TD*%
D13*
%TO.C,C143*%
X249047759Y-160417041D03*
X250249841Y-159214959D03*
%TD*%
%TO.C,C15*%
X222347759Y-115917041D03*
X223549841Y-114714959D03*
%TD*%
%TO.C,C93*%
X249047759Y-142617041D03*
X250249841Y-141414959D03*
%TD*%
D12*
%TO.C,LED10*%
X179548800Y-117228400D03*
X179548800Y-120528400D03*
X184448800Y-120528400D03*
X184448800Y-117228400D03*
%TD*%
%TO.C,LED32*%
X152848800Y-126128400D03*
X152848800Y-129428400D03*
X157748800Y-129428400D03*
X157748800Y-126128400D03*
%TD*%
%TO.C,LED107*%
X152848800Y-152828400D03*
X152848800Y-156128400D03*
X157748800Y-156128400D03*
X157748800Y-152828400D03*
%TD*%
%TO.C,LED20*%
X268548800Y-117228400D03*
X268548800Y-120528400D03*
X273448800Y-120528400D03*
X273448800Y-117228400D03*
%TD*%
%TO.C,LED92*%
X241848800Y-143928400D03*
X241848800Y-147228400D03*
X246748800Y-147228400D03*
X246748800Y-143928400D03*
%TD*%
D13*
%TO.C,C130*%
X133347759Y-160417041D03*
X134549841Y-159214959D03*
%TD*%
D12*
%TO.C,LED145*%
X268548800Y-161728400D03*
X268548800Y-165028400D03*
X273448800Y-165028400D03*
X273448800Y-161728400D03*
%TD*%
%TO.C,LED109*%
X170648800Y-152828400D03*
X170648800Y-156128400D03*
X175548800Y-156128400D03*
X175548800Y-152828400D03*
%TD*%
D13*
%TO.C,C56*%
X142247759Y-133717041D03*
X143449841Y-132514959D03*
%TD*%
D12*
%TO.C,LED155*%
X135048800Y-170628400D03*
X135048800Y-173928400D03*
X139948800Y-173928400D03*
X139948800Y-170628400D03*
%TD*%
D13*
%TO.C,C12*%
X195647759Y-115917041D03*
X196849841Y-114714959D03*
%TD*%
D12*
%TO.C,LED112*%
X197348800Y-152828400D03*
X197348800Y-156128400D03*
X202248800Y-156128400D03*
X202248800Y-152828400D03*
%TD*%
D13*
%TO.C,C160*%
X177847759Y-169317041D03*
X179049841Y-168114959D03*
%TD*%
%TO.C,C13*%
X204547759Y-115917041D03*
X205749841Y-114714959D03*
%TD*%
%TO.C,C25*%
X311347759Y-115917041D03*
X312549841Y-114714959D03*
%TD*%
%TO.C,C138*%
X204547759Y-160417041D03*
X205749841Y-159214959D03*
%TD*%
%TO.C,C32*%
X151147759Y-124817041D03*
X152349841Y-123614959D03*
%TD*%
%TO.C,C49*%
X302447759Y-124817041D03*
X303649841Y-123614959D03*
%TD*%
D12*
%TO.C,LED79*%
X126148800Y-143928400D03*
X126148800Y-147228400D03*
X131048800Y-147228400D03*
X131048800Y-143928400D03*
%TD*%
D13*
%TO.C,C116*%
X231247759Y-151517041D03*
X232449841Y-150314959D03*
%TD*%
%TO.C,C66*%
X231247759Y-133717041D03*
X232449841Y-132514959D03*
%TD*%
D12*
%TO.C,LED161*%
X188448800Y-170628400D03*
X188448800Y-173928400D03*
X193348800Y-173928400D03*
X193348800Y-170628400D03*
%TD*%
%TO.C,LED48*%
X295248800Y-126128400D03*
X295248800Y-129428400D03*
X300148800Y-129428400D03*
X300148800Y-126128400D03*
%TD*%
%TO.C,LED35*%
X179548800Y-126128400D03*
X179548800Y-129428400D03*
X184448800Y-129428400D03*
X184448800Y-126128400D03*
%TD*%
%TO.C,LED130*%
X135048800Y-161728400D03*
X135048800Y-165028400D03*
X139948800Y-165028400D03*
X139948800Y-161728400D03*
%TD*%
%TO.C,LED122*%
X286348800Y-152828400D03*
X286348800Y-156128400D03*
X291248800Y-156128400D03*
X291248800Y-152828400D03*
%TD*%
D13*
%TO.C,C83*%
X160047759Y-142617041D03*
X161249841Y-141414959D03*
%TD*%
%TO.C,C135*%
X177847759Y-160417041D03*
X179049841Y-159214959D03*
%TD*%
D12*
%TO.C,LED143*%
X250748800Y-161728400D03*
X250748800Y-165028400D03*
X255648800Y-165028400D03*
X255648800Y-161728400D03*
%TD*%
D13*
%TO.C,C22*%
X284647759Y-115917041D03*
X285849841Y-114714959D03*
%TD*%
%TO.C,C119*%
X257947759Y-151517041D03*
X259149841Y-150314959D03*
%TD*%
%TO.C,C67*%
X240147759Y-133717041D03*
X241349841Y-132514959D03*
%TD*%
D12*
%TO.C,LED149*%
X304148800Y-161728400D03*
X304148800Y-165028400D03*
X309048800Y-165028400D03*
X309048800Y-161728400D03*
%TD*%
D13*
%TO.C,C174*%
X302447759Y-169317041D03*
X303649841Y-168114959D03*
%TD*%
D12*
%TO.C,LED2*%
X108399600Y-116822000D03*
X108399600Y-120122000D03*
X113299600Y-120122000D03*
X113299600Y-116822000D03*
%TD*%
D13*
%TO.C,C122*%
X284647759Y-151517041D03*
X285849841Y-150314959D03*
%TD*%
D12*
%TO.C,LED28*%
X117248800Y-126128400D03*
X117248800Y-129428400D03*
X122148800Y-129428400D03*
X122148800Y-126128400D03*
%TD*%
%TO.C,LED146*%
X277448800Y-161728400D03*
X277448800Y-165028400D03*
X282348800Y-165028400D03*
X282348800Y-161728400D03*
%TD*%
D13*
%TO.C,C157*%
X151147759Y-169317041D03*
X152349841Y-168114959D03*
%TD*%
%TO.C,C74*%
X302447759Y-133717041D03*
X303649841Y-132514959D03*
%TD*%
D12*
%TO.C,LED52*%
X108348800Y-135028400D03*
X108348800Y-138328400D03*
X113248800Y-138328400D03*
X113248800Y-135028400D03*
%TD*%
D13*
%TO.C,C85*%
X177847759Y-142617041D03*
X179049841Y-141414959D03*
%TD*%
D12*
%TO.C,LED157*%
X152848800Y-170628400D03*
X152848800Y-173928400D03*
X157748800Y-173928400D03*
X157748800Y-170628400D03*
%TD*%
%TO.C,LED90*%
X224048800Y-143928400D03*
X224048800Y-147228400D03*
X228948800Y-147228400D03*
X228948800Y-143928400D03*
%TD*%
D13*
%TO.C,C147*%
X284647759Y-160417041D03*
X285849841Y-159214959D03*
%TD*%
D12*
%TO.C,LED15*%
X224048800Y-117228400D03*
X224048800Y-120528400D03*
X228948800Y-120528400D03*
X228948800Y-117228400D03*
%TD*%
%TO.C,LED108*%
X161748800Y-152828400D03*
X161748800Y-156128400D03*
X166648800Y-156128400D03*
X166648800Y-152828400D03*
%TD*%
D13*
%TO.C,C24*%
X302447759Y-115917041D03*
X303649841Y-114714959D03*
%TD*%
D12*
%TO.C,LED58*%
X161748800Y-135028400D03*
X161748800Y-138328400D03*
X166648800Y-138328400D03*
X166648800Y-135028400D03*
%TD*%
%TO.C,LED115*%
X224048800Y-152828400D03*
X224048800Y-156128400D03*
X228948800Y-156128400D03*
X228948800Y-152828400D03*
%TD*%
D13*
%TO.C,C75*%
X311347759Y-133717041D03*
X312549841Y-132514959D03*
%TD*%
%TO.C,C44*%
X257947759Y-124817041D03*
X259149841Y-123614959D03*
%TD*%
%TO.C,C123*%
X293547759Y-151517041D03*
X294749841Y-150314959D03*
%TD*%
%TO.C,C161*%
X186747759Y-169317041D03*
X187949841Y-168114959D03*
%TD*%
%TO.C,C45*%
X266847759Y-124817041D03*
X268049841Y-123614959D03*
%TD*%
%TO.C,C105*%
X133347759Y-151517041D03*
X134549841Y-150314959D03*
%TD*%
D12*
%TO.C,LED34*%
X170648800Y-126128400D03*
X170648800Y-129428400D03*
X175548800Y-129428400D03*
X175548800Y-126128400D03*
%TD*%
%TO.C,LED160*%
X179548800Y-170628400D03*
X179548800Y-173928400D03*
X184448800Y-173928400D03*
X184448800Y-170628400D03*
%TD*%
%TO.C,LED53*%
X117248800Y-135028400D03*
X117248800Y-138328400D03*
X122148800Y-138328400D03*
X122148800Y-135028400D03*
%TD*%
%TO.C,LED19*%
X259648800Y-117228400D03*
X259648800Y-120528400D03*
X264548800Y-120528400D03*
X264548800Y-117228400D03*
%TD*%
D13*
%TO.C,C158*%
X160047759Y-169317041D03*
X161249841Y-168114959D03*
%TD*%
%TO.C,C86*%
X186747759Y-142617041D03*
X187949841Y-141414959D03*
%TD*%
D12*
%TO.C,LED99*%
X304148800Y-143928400D03*
X304148800Y-147228400D03*
X309048800Y-147228400D03*
X309048800Y-143928400D03*
%TD*%
%TO.C,LED125*%
X313048800Y-152828400D03*
X313048800Y-156128400D03*
X317948800Y-156128400D03*
X317948800Y-152828400D03*
%TD*%
D13*
%TO.C,C127*%
X106647759Y-160417041D03*
X107849841Y-159214959D03*
%TD*%
%TO.C,C134*%
X168947759Y-160417041D03*
X170149841Y-159214959D03*
%TD*%
D12*
%TO.C,LED163*%
X206248800Y-170628400D03*
X206248800Y-173928400D03*
X211148800Y-173928400D03*
X211148800Y-170628400D03*
%TD*%
%TO.C,LED134*%
X170648800Y-161728400D03*
X170648800Y-165028400D03*
X175548800Y-165028400D03*
X175548800Y-161728400D03*
%TD*%
D13*
%TO.C,C41*%
X231247759Y-124817041D03*
X232449841Y-123614959D03*
%TD*%
D12*
%TO.C,LED67*%
X241848800Y-135028400D03*
X241848800Y-138328400D03*
X246748800Y-138328400D03*
X246748800Y-135028400D03*
%TD*%
D13*
%TO.C,C65*%
X222347759Y-133717041D03*
X223549841Y-132514959D03*
%TD*%
%TO.C,C42*%
X240147759Y-124817041D03*
X241349841Y-123614959D03*
%TD*%
%TO.C,C140*%
X222347759Y-160417041D03*
X223549841Y-159214959D03*
%TD*%
%TO.C,C142*%
X240147759Y-160417041D03*
X241349841Y-159214959D03*
%TD*%
D12*
%TO.C,LED116*%
X232948800Y-152828400D03*
X232948800Y-156128400D03*
X237848800Y-156128400D03*
X237848800Y-152828400D03*
%TD*%
%TO.C,LED75*%
X313048800Y-135028400D03*
X313048800Y-138328400D03*
X317948800Y-138328400D03*
X317948800Y-135028400D03*
%TD*%
D13*
%TO.C,C163*%
X204547759Y-169317041D03*
X205749841Y-168114959D03*
%TD*%
D12*
%TO.C,LED96*%
X277448800Y-143928400D03*
X277448800Y-147228400D03*
X282348800Y-147228400D03*
X282348800Y-143928400D03*
%TD*%
%TO.C,LED93*%
X250748800Y-143928400D03*
X250748800Y-147228400D03*
X255648800Y-147228400D03*
X255648800Y-143928400D03*
%TD*%
%TO.C,LED123*%
X295248800Y-152828400D03*
X295248800Y-156128400D03*
X300148800Y-156128400D03*
X300148800Y-152828400D03*
%TD*%
D13*
%TO.C,C94*%
X257947759Y-142617041D03*
X259149841Y-141414959D03*
%TD*%
D12*
%TO.C,LED5*%
X135048800Y-117228400D03*
X135048800Y-120528400D03*
X139948800Y-120528400D03*
X139948800Y-117228400D03*
%TD*%
%TO.C,LED37*%
X197348800Y-126128400D03*
X197348800Y-129428400D03*
X202248800Y-129428400D03*
X202248800Y-126128400D03*
%TD*%
%TO.C,LED33*%
X161748800Y-126128400D03*
X161748800Y-129428400D03*
X166648800Y-129428400D03*
X166648800Y-126128400D03*
%TD*%
D13*
%TO.C,C97*%
X284647759Y-142617041D03*
X285849841Y-141414959D03*
%TD*%
%TO.C,C19*%
X257947759Y-115917041D03*
X259149841Y-114714959D03*
%TD*%
%TO.C,C133*%
X160047759Y-160417041D03*
X161249841Y-159214959D03*
%TD*%
D12*
%TO.C,LED50*%
X313048800Y-126128400D03*
X313048800Y-129428400D03*
X317948800Y-129428400D03*
X317948800Y-126128400D03*
%TD*%
D13*
%TO.C,C70*%
X266847759Y-133717041D03*
X268049841Y-132514959D03*
%TD*%
D12*
%TO.C,LED47*%
X286348800Y-126128400D03*
X286348800Y-129428400D03*
X291248800Y-129428400D03*
X291248800Y-126128400D03*
%TD*%
D13*
%TO.C,C171*%
X275747759Y-169317041D03*
X276949841Y-168114959D03*
%TD*%
D12*
%TO.C,LED101*%
X99448800Y-152828400D03*
X99448800Y-156128400D03*
X104348800Y-156128400D03*
X104348800Y-152828400D03*
%TD*%
%TO.C,LED85*%
X179548800Y-143928400D03*
X179548800Y-147228400D03*
X184448800Y-147228400D03*
X184448800Y-143928400D03*
%TD*%
D13*
%TO.C,C4*%
X124447759Y-115917041D03*
X125649841Y-114714959D03*
%TD*%
%TO.C,C149*%
X302447759Y-160417041D03*
X303649841Y-159214959D03*
%TD*%
%TO.C,C169*%
X257947759Y-169317041D03*
X259149841Y-168114959D03*
%TD*%
D12*
%TO.C,LED56*%
X143948800Y-135028400D03*
X143948800Y-138328400D03*
X148848800Y-138328400D03*
X148848800Y-135028400D03*
%TD*%
D13*
%TO.C,C154*%
X124447759Y-169317041D03*
X125649841Y-168114959D03*
%TD*%
D12*
%TO.C,LED60*%
X179548800Y-135028400D03*
X179548800Y-138328400D03*
X184448800Y-138328400D03*
X184448800Y-135028400D03*
%TD*%
%TO.C,LED17*%
X241848800Y-117228400D03*
X241848800Y-120528400D03*
X246748800Y-120528400D03*
X246748800Y-117228400D03*
%TD*%
D13*
%TO.C,C43*%
X249047759Y-124817041D03*
X250249841Y-123614959D03*
%TD*%
D12*
%TO.C,LED57*%
X152848800Y-135028400D03*
X152848800Y-138328400D03*
X157748800Y-138328400D03*
X157748800Y-135028400D03*
%TD*%
%TO.C,LED106*%
X143948800Y-152828400D03*
X143948800Y-156128400D03*
X148848800Y-156128400D03*
X148848800Y-152828400D03*
%TD*%
D13*
%TO.C,C117*%
X240147759Y-151517041D03*
X241349841Y-150314959D03*
%TD*%
%TO.C,C57*%
X151147759Y-133717041D03*
X152349841Y-132514959D03*
%TD*%
%TO.C,C137*%
X195647759Y-160417041D03*
X196849841Y-159214959D03*
%TD*%
%TO.C,C36*%
X186747759Y-124817041D03*
X187949841Y-123614959D03*
%TD*%
%TO.C,C7*%
X151147759Y-115917041D03*
X152349841Y-114714959D03*
%TD*%
%TO.C,C6*%
X142247759Y-115917041D03*
X143449841Y-114714959D03*
%TD*%
%TO.C,C18*%
X249047759Y-115917041D03*
X250249841Y-114714959D03*
%TD*%
%TO.C,C121*%
X275747759Y-151517041D03*
X276949841Y-150314959D03*
%TD*%
%TO.C,C101*%
X97747759Y-151517041D03*
X98949841Y-150314959D03*
%TD*%
D12*
%TO.C,LED49*%
X304148800Y-126128400D03*
X304148800Y-129428400D03*
X309048800Y-129428400D03*
X309048800Y-126128400D03*
%TD*%
%TO.C,LED36*%
X188448800Y-126128400D03*
X188448800Y-129428400D03*
X193348800Y-129428400D03*
X193348800Y-126128400D03*
%TD*%
%TO.C,LED135*%
X179548800Y-161728400D03*
X179548800Y-165028400D03*
X184448800Y-165028400D03*
X184448800Y-161728400D03*
%TD*%
D13*
%TO.C,C31*%
X142247759Y-124817041D03*
X143449841Y-123614959D03*
%TD*%
%TO.C,C162*%
X195647759Y-169317041D03*
X196849841Y-168114959D03*
%TD*%
%TO.C,C53*%
X115547759Y-133717041D03*
X116749841Y-132514959D03*
%TD*%
D12*
%TO.C,LED118*%
X250748800Y-152828400D03*
X250748800Y-156128400D03*
X255648800Y-156128400D03*
X255648800Y-152828400D03*
%TD*%
D13*
%TO.C,C1*%
X97747759Y-115917041D03*
X98949841Y-114714959D03*
%TD*%
D12*
%TO.C,LED98*%
X295248800Y-143928400D03*
X295248800Y-147228400D03*
X300148800Y-147228400D03*
X300148800Y-143928400D03*
%TD*%
D13*
%TO.C,C39*%
X213447759Y-124817041D03*
X214649841Y-123614959D03*
%TD*%
D12*
%TO.C,LED54*%
X126148800Y-135028400D03*
X126148800Y-138328400D03*
X131048800Y-138328400D03*
X131048800Y-135028400D03*
%TD*%
D13*
%TO.C,C28*%
X115547759Y-124817041D03*
X116749841Y-123614959D03*
%TD*%
D12*
%TO.C,LED103*%
X117248800Y-152828400D03*
X117248800Y-156128400D03*
X122148800Y-156128400D03*
X122148800Y-152828400D03*
%TD*%
D13*
%TO.C,C9*%
X168947759Y-115917041D03*
X170149841Y-114714959D03*
%TD*%
%TO.C,C173*%
X293547759Y-169317041D03*
X294749841Y-168114959D03*
%TD*%
D12*
%TO.C,LED29*%
X126148800Y-126128400D03*
X126148800Y-129428400D03*
X131048800Y-129428400D03*
X131048800Y-126128400D03*
%TD*%
D13*
%TO.C,C102*%
X106647759Y-151517041D03*
X107849841Y-150314959D03*
%TD*%
%TO.C,C115*%
X222347759Y-151517041D03*
X223549841Y-150314959D03*
%TD*%
%TO.C,C172*%
X284647759Y-169317041D03*
X285849841Y-168114959D03*
%TD*%
D12*
%TO.C,LED94*%
X259648800Y-143928400D03*
X259648800Y-147228400D03*
X264548800Y-147228400D03*
X264548800Y-143928400D03*
%TD*%
%TO.C,LED4*%
X126148800Y-117228400D03*
X126148800Y-120528400D03*
X131048800Y-120528400D03*
X131048800Y-117228400D03*
%TD*%
%TO.C,LED16*%
X232948800Y-117228400D03*
X232948800Y-120528400D03*
X237848800Y-120528400D03*
X237848800Y-117228400D03*
%TD*%
%TO.C,LED89*%
X215148800Y-143928400D03*
X215148800Y-147228400D03*
X220048800Y-147228400D03*
X220048800Y-143928400D03*
%TD*%
D13*
%TO.C,C46*%
X275747759Y-124817041D03*
X276949841Y-123614959D03*
%TD*%
%TO.C,C170*%
X266847759Y-169317041D03*
X268049841Y-168114959D03*
%TD*%
%TO.C,C69*%
X257947759Y-133717041D03*
X259149841Y-132514959D03*
%TD*%
%TO.C,C89*%
X213447759Y-142617041D03*
X214649841Y-141414959D03*
%TD*%
D12*
%TO.C,LED81*%
X143948800Y-143928400D03*
X143948800Y-147228400D03*
X148848800Y-147228400D03*
X148848800Y-143928400D03*
%TD*%
D13*
%TO.C,C110*%
X177847759Y-151517041D03*
X179049841Y-150314959D03*
%TD*%
%TO.C,C26*%
X97747759Y-124817041D03*
X98949841Y-123614959D03*
%TD*%
D12*
%TO.C,LED110*%
X179548800Y-152828400D03*
X179548800Y-156128400D03*
X184448800Y-156128400D03*
X184448800Y-152828400D03*
%TD*%
D13*
%TO.C,C35*%
X177847759Y-124817041D03*
X179049841Y-123614959D03*
%TD*%
%TO.C,C92*%
X240147759Y-142617041D03*
X241349841Y-141414959D03*
%TD*%
%TO.C,C11*%
X186747759Y-115917041D03*
X187949841Y-114714959D03*
%TD*%
D12*
%TO.C,LED128*%
X117248800Y-161728400D03*
X117248800Y-165028400D03*
X122148800Y-165028400D03*
X122148800Y-161728400D03*
%TD*%
%TO.C,LED12*%
X197348800Y-117228400D03*
X197348800Y-120528400D03*
X202248800Y-120528400D03*
X202248800Y-117228400D03*
%TD*%
D13*
%TO.C,C166*%
X231247759Y-169317041D03*
X232449841Y-168114959D03*
%TD*%
%TO.C,C98*%
X293547759Y-142617041D03*
X294749841Y-141414959D03*
%TD*%
D12*
%TO.C,LED172*%
X286348800Y-170628400D03*
X286348800Y-173928400D03*
X291248800Y-173928400D03*
X291248800Y-170628400D03*
%TD*%
D13*
%TO.C,C17*%
X240147759Y-115917041D03*
X241349841Y-114714959D03*
%TD*%
D12*
%TO.C,LED142*%
X241848800Y-161728400D03*
X241848800Y-165028400D03*
X246748800Y-165028400D03*
X246748800Y-161728400D03*
%TD*%
%TO.C,LED88*%
X206248800Y-143928400D03*
X206248800Y-147228400D03*
X211148800Y-147228400D03*
X211148800Y-143928400D03*
%TD*%
%TO.C,LED169*%
X259648800Y-170628400D03*
X259648800Y-173928400D03*
X264548800Y-173928400D03*
X264548800Y-170628400D03*
%TD*%
%TO.C,LED84*%
X170648800Y-143928400D03*
X170648800Y-147228400D03*
X175548800Y-147228400D03*
X175548800Y-143928400D03*
%TD*%
%TO.C,LED164*%
X220048800Y-170628400D03*
X220048800Y-173928400D03*
X215148800Y-173928400D03*
X215148800Y-170628400D03*
%TD*%
%TO.C,LED133*%
X161748800Y-161728400D03*
X161748800Y-165028400D03*
X166648800Y-165028400D03*
X166648800Y-161728400D03*
%TD*%
%TO.C,LED69*%
X259648800Y-135028400D03*
X259648800Y-138328400D03*
X264548800Y-138328400D03*
X264548800Y-135028400D03*
%TD*%
%TO.C,LED140*%
X224048800Y-161728400D03*
X224048800Y-165028400D03*
X228948800Y-165028400D03*
X228948800Y-161728400D03*
%TD*%
D13*
%TO.C,C109*%
X168947759Y-151517041D03*
X170149841Y-150314959D03*
%TD*%
D12*
%TO.C,LED78*%
X117248800Y-143928400D03*
X117248800Y-147228400D03*
X122148800Y-147228400D03*
X122148800Y-143928400D03*
%TD*%
%TO.C,LED154*%
X126148800Y-170628400D03*
X126148800Y-173928400D03*
X131048800Y-173928400D03*
X131048800Y-170628400D03*
%TD*%
%TO.C,LED68*%
X250748800Y-135028400D03*
X250748800Y-138328400D03*
X255648800Y-138328400D03*
X255648800Y-135028400D03*
%TD*%
D13*
%TO.C,C73*%
X293547759Y-133717041D03*
X294749841Y-132514959D03*
%TD*%
%TO.C,C167*%
X240147759Y-169317041D03*
X241349841Y-168114959D03*
%TD*%
D12*
%TO.C,LED131*%
X143948800Y-161728400D03*
X143948800Y-165028400D03*
X148848800Y-165028400D03*
X148848800Y-161728400D03*
%TD*%
D13*
%TO.C,C126*%
X97747759Y-160417041D03*
X98949841Y-159214959D03*
%TD*%
D12*
%TO.C,LED80*%
X135048800Y-143928400D03*
X135048800Y-147228400D03*
X139948800Y-147228400D03*
X139948800Y-143928400D03*
%TD*%
D13*
%TO.C,C106*%
X142247759Y-151517041D03*
X143449841Y-150314959D03*
%TD*%
D12*
%TO.C,LED105*%
X135048800Y-152828400D03*
X135048800Y-156128400D03*
X139948800Y-156128400D03*
X139948800Y-152828400D03*
%TD*%
D13*
%TO.C,C84*%
X168947759Y-142617041D03*
X170149841Y-141414959D03*
%TD*%
%TO.C,C155*%
X133347759Y-169317041D03*
X134549841Y-168114959D03*
%TD*%
D12*
%TO.C,LED71*%
X277448800Y-135028400D03*
X277448800Y-138328400D03*
X282348800Y-138328400D03*
X282348800Y-135028400D03*
%TD*%
D13*
%TO.C,C112*%
X195647759Y-151517041D03*
X196849841Y-150314959D03*
%TD*%
D12*
%TO.C,LED147*%
X286348800Y-161728400D03*
X286348800Y-165028400D03*
X291248800Y-165028400D03*
X291248800Y-161728400D03*
%TD*%
D13*
%TO.C,C100*%
X311347759Y-142617041D03*
X312549841Y-141414959D03*
%TD*%
%TO.C,C34*%
X168947759Y-124817041D03*
X170149841Y-123614959D03*
%TD*%
D12*
%TO.C,LED18*%
X250748800Y-117228400D03*
X250748800Y-120528400D03*
X255648800Y-120528400D03*
X255648800Y-117228400D03*
%TD*%
%TO.C,LED153*%
X117248800Y-170628400D03*
X117248800Y-173928400D03*
X122148800Y-173928400D03*
X122148800Y-170628400D03*
%TD*%
D13*
%TO.C,C40*%
X222347759Y-124817041D03*
X223549841Y-123614959D03*
%TD*%
%TO.C,C120*%
X266847759Y-151517041D03*
X268049841Y-150314959D03*
%TD*%
D12*
%TO.C,LED83*%
X161748800Y-143928400D03*
X161748800Y-147228400D03*
X166648800Y-147228400D03*
X166648800Y-143928400D03*
%TD*%
%TO.C,LED73*%
X295248800Y-135028400D03*
X295248800Y-138328400D03*
X300148800Y-138328400D03*
X300148800Y-135028400D03*
%TD*%
%TO.C,LED138*%
X206248800Y-161728400D03*
X206248800Y-165028400D03*
X211148800Y-165028400D03*
X211148800Y-161728400D03*
%TD*%
D13*
%TO.C,C128*%
X115547759Y-160417041D03*
X116749841Y-159214959D03*
%TD*%
%TO.C,C8*%
X160047759Y-115917041D03*
X161249841Y-114714959D03*
%TD*%
%TO.C,C2*%
X106647759Y-115917041D03*
X107849841Y-114714959D03*
%TD*%
%TO.C,C82*%
X151147759Y-142617041D03*
X152349841Y-141414959D03*
%TD*%
D12*
%TO.C,LED30*%
X135048800Y-126128400D03*
X135048800Y-129428400D03*
X139948800Y-129428400D03*
X139948800Y-126128400D03*
%TD*%
%TO.C,LED31*%
X143948800Y-126128400D03*
X143948800Y-129428400D03*
X148848800Y-129428400D03*
X148848800Y-126128400D03*
%TD*%
D13*
%TO.C,C88*%
X204547759Y-142617041D03*
X205749841Y-141414959D03*
%TD*%
%TO.C,C38*%
X204547759Y-124817041D03*
X205749841Y-123614959D03*
%TD*%
D12*
%TO.C,LED126*%
X99448800Y-161728400D03*
X99448800Y-165028400D03*
X104348800Y-165028400D03*
X104348800Y-161728400D03*
%TD*%
D13*
%TO.C,C104*%
X124447759Y-151517041D03*
X125649841Y-150314959D03*
%TD*%
%TO.C,C103*%
X115547759Y-151517041D03*
X116749841Y-150314959D03*
%TD*%
%TO.C,C175*%
X311347759Y-169317041D03*
X312549841Y-168114959D03*
%TD*%
D12*
%TO.C,LED136*%
X188448800Y-161728400D03*
X188448800Y-165028400D03*
X193348800Y-165028400D03*
X193348800Y-161728400D03*
%TD*%
%TO.C,LED117*%
X241848800Y-152828400D03*
X241848800Y-156128400D03*
X246748800Y-156128400D03*
X246748800Y-152828400D03*
%TD*%
%TO.C,LED82*%
X152848800Y-143928400D03*
X152848800Y-147228400D03*
X157748800Y-147228400D03*
X157748800Y-143928400D03*
%TD*%
%TO.C,LED121*%
X277448800Y-152828400D03*
X277448800Y-156128400D03*
X282348800Y-156128400D03*
X282348800Y-152828400D03*
%TD*%
%TO.C,LED77*%
X108348800Y-143928400D03*
X108348800Y-147228400D03*
X113248800Y-147228400D03*
X113248800Y-143928400D03*
%TD*%
%TO.C,LED9*%
X170648800Y-117228400D03*
X170648800Y-120528400D03*
X175548800Y-120528400D03*
X175548800Y-117228400D03*
%TD*%
D13*
%TO.C,C60*%
X177847759Y-133717041D03*
X179049841Y-132514959D03*
%TD*%
%TO.C,C145*%
X266847759Y-160417041D03*
X268049841Y-159214959D03*
%TD*%
D12*
%TO.C,LED144*%
X259648800Y-161728400D03*
X259648800Y-165028400D03*
X264548800Y-165028400D03*
X264548800Y-161728400D03*
%TD*%
D13*
%TO.C,C79*%
X124447759Y-142617041D03*
X125649841Y-141414959D03*
%TD*%
%TO.C,C16*%
X231247759Y-115917041D03*
X232449841Y-114714959D03*
%TD*%
D12*
%TO.C,LED175*%
X313048800Y-170628400D03*
X313048800Y-173928400D03*
X317948800Y-173928400D03*
X317948800Y-170628400D03*
%TD*%
D13*
%TO.C,C113*%
X204547759Y-151517041D03*
X205749841Y-150314959D03*
%TD*%
D12*
%TO.C,LED151*%
X99448800Y-170628400D03*
X99448800Y-173928400D03*
X104348800Y-173928400D03*
X104348800Y-170628400D03*
%TD*%
%TO.C,LED51*%
X99448800Y-135028400D03*
X99448800Y-138328400D03*
X104348800Y-138328400D03*
X104348800Y-135028400D03*
%TD*%
D13*
%TO.C,C61*%
X186747759Y-133717041D03*
X187949841Y-132514959D03*
%TD*%
%TO.C,C87*%
X195647759Y-142617041D03*
X196849841Y-141414959D03*
%TD*%
%TO.C,C47*%
X284647759Y-124817041D03*
X285849841Y-123614959D03*
%TD*%
D12*
%TO.C,LED171*%
X277448800Y-170628400D03*
X277448800Y-173928400D03*
X282348800Y-173928400D03*
X282348800Y-170628400D03*
%TD*%
D13*
%TO.C,C107*%
X151147759Y-151517041D03*
X152349841Y-150314959D03*
%TD*%
D12*
%TO.C,LED165*%
X224048800Y-170628400D03*
X224048800Y-173928400D03*
X228948800Y-173928400D03*
X228948800Y-170628400D03*
%TD*%
%TO.C,LED156*%
X143948800Y-170628400D03*
X143948800Y-173928400D03*
X148848800Y-173928400D03*
X148848800Y-170628400D03*
%TD*%
%TO.C,LED41*%
X232948800Y-126128400D03*
X232948800Y-129428400D03*
X237848800Y-129428400D03*
X237848800Y-126128400D03*
%TD*%
D13*
%TO.C,C54*%
X124447759Y-133717041D03*
X125649841Y-132514959D03*
%TD*%
D12*
%TO.C,LED166*%
X232948800Y-170628400D03*
X232948800Y-173928400D03*
X237848800Y-173928400D03*
X237848800Y-170628400D03*
%TD*%
D13*
%TO.C,C129*%
X124447759Y-160417041D03*
X125649841Y-159214959D03*
%TD*%
D12*
%TO.C,LED141*%
X232948800Y-161728400D03*
X232948800Y-165028400D03*
X237848800Y-165028400D03*
X237848800Y-161728400D03*
%TD*%
D13*
%TO.C,C114*%
X213447759Y-151517041D03*
X214649841Y-150314959D03*
%TD*%
D12*
%TO.C,LED72*%
X286348800Y-135028400D03*
X286348800Y-138328400D03*
X291248800Y-138328400D03*
X291248800Y-135028400D03*
%TD*%
D13*
%TO.C,C27*%
X106647759Y-124817041D03*
X107849841Y-123614959D03*
%TD*%
D12*
%TO.C,LED148*%
X295248800Y-161728400D03*
X295248800Y-165028400D03*
X300148800Y-165028400D03*
X300148800Y-161728400D03*
%TD*%
D13*
%TO.C,C81*%
X142247759Y-142617041D03*
X143449841Y-141414959D03*
%TD*%
D12*
%TO.C,LED64*%
X215148800Y-135028400D03*
X215148800Y-138328400D03*
X220048800Y-138328400D03*
X220048800Y-135028400D03*
%TD*%
%TO.C,LED127*%
X108348800Y-161728400D03*
X108348800Y-165028400D03*
X113248800Y-165028400D03*
X113248800Y-161728400D03*
%TD*%
D13*
%TO.C,C153*%
X115547759Y-169317041D03*
X116749841Y-168114959D03*
%TD*%
D12*
%TO.C,LED7*%
X152848800Y-117228400D03*
X152848800Y-120528400D03*
X157748800Y-120528400D03*
X157748800Y-117228400D03*
%TD*%
D13*
%TO.C,C165*%
X222347759Y-169317041D03*
X223549841Y-168114959D03*
%TD*%
D12*
%TO.C,LED45*%
X268548800Y-126128400D03*
X268548800Y-129428400D03*
X273448800Y-129428400D03*
X273448800Y-126128400D03*
%TD*%
D13*
%TO.C,C159*%
X168947759Y-169317041D03*
X170149841Y-168114959D03*
%TD*%
D12*
%TO.C,LED23*%
X295248800Y-117228400D03*
X295248800Y-120528400D03*
X300148800Y-120528400D03*
X300148800Y-117228400D03*
%TD*%
%TO.C,LED14*%
X215148800Y-117228400D03*
X215148800Y-120528400D03*
X220048800Y-120528400D03*
X220048800Y-117228400D03*
%TD*%
%TO.C,LED95*%
X268548800Y-143928400D03*
X268548800Y-147228400D03*
X273448800Y-147228400D03*
X273448800Y-143928400D03*
%TD*%
%TO.C,LED97*%
X286348800Y-143928400D03*
X286348800Y-147228400D03*
X291248800Y-147228400D03*
X291248800Y-143928400D03*
%TD*%
%TO.C,LED162*%
X197348800Y-170628400D03*
X197348800Y-173928400D03*
X202248800Y-173928400D03*
X202248800Y-170628400D03*
%TD*%
%TO.C,LED24*%
X304148800Y-117228400D03*
X304148800Y-120528400D03*
X309048800Y-120528400D03*
X309048800Y-117228400D03*
%TD*%
D13*
%TO.C,C95*%
X266847759Y-142617041D03*
X268049841Y-141414959D03*
%TD*%
D12*
%TO.C,LED46*%
X277448800Y-126128400D03*
X277448800Y-129428400D03*
X282348800Y-129428400D03*
X282348800Y-126128400D03*
%TD*%
D13*
%TO.C,C118*%
X249047759Y-151517041D03*
X250249841Y-150314959D03*
%TD*%
D12*
%TO.C,LED170*%
X268548800Y-170628400D03*
X268548800Y-173928400D03*
X273448800Y-173928400D03*
X273448800Y-170628400D03*
%TD*%
%TO.C,LED104*%
X126148800Y-152828400D03*
X126148800Y-156128400D03*
X131048800Y-156128400D03*
X131048800Y-152828400D03*
%TD*%
%TO.C,LED21*%
X277448800Y-117228400D03*
X277448800Y-120528400D03*
X282348800Y-120528400D03*
X282348800Y-117228400D03*
%TD*%
D13*
%TO.C,C77*%
X106647759Y-142617041D03*
X107849841Y-141414959D03*
%TD*%
D12*
%TO.C,LED102*%
X108348800Y-152828400D03*
X108348800Y-156128400D03*
X113248800Y-156128400D03*
X113248800Y-152828400D03*
%TD*%
D13*
%TO.C,C58*%
X160047759Y-133717041D03*
X161249841Y-132514959D03*
%TD*%
D12*
%TO.C,LED167*%
X241848800Y-170628400D03*
X241848800Y-173928400D03*
X246748800Y-173928400D03*
X246748800Y-170628400D03*
%TD*%
%TO.C,LED124*%
X304148800Y-152828400D03*
X304148800Y-156128400D03*
X309048800Y-156128400D03*
X309048800Y-152828400D03*
%TD*%
%TO.C,LED61*%
X188448800Y-135028400D03*
X188448800Y-138328400D03*
X193348800Y-138328400D03*
X193348800Y-135028400D03*
%TD*%
D13*
%TO.C,C14*%
X213447759Y-115917041D03*
X214649841Y-114714959D03*
%TD*%
D12*
%TO.C,LED40*%
X224048800Y-126128400D03*
X224048800Y-129428400D03*
X228948800Y-129428400D03*
X228948800Y-126128400D03*
%TD*%
%TO.C,LED91*%
X232948800Y-143928400D03*
X232948800Y-147228400D03*
X237848800Y-147228400D03*
X237848800Y-143928400D03*
%TD*%
D13*
%TO.C,C139*%
X213447759Y-160417041D03*
X214649841Y-159214959D03*
%TD*%
D12*
%TO.C,LED3*%
X117248800Y-117228400D03*
X117248800Y-120528400D03*
X122148800Y-120528400D03*
X122148800Y-117228400D03*
%TD*%
%TO.C,LED137*%
X197348800Y-161728400D03*
X197348800Y-165028400D03*
X202248800Y-165028400D03*
X202248800Y-161728400D03*
%TD*%
%TO.C,LED129*%
X126148800Y-161728400D03*
X126148800Y-165028400D03*
X131048800Y-165028400D03*
X131048800Y-161728400D03*
%TD*%
D13*
%TO.C,C20*%
X266847759Y-115917041D03*
X268049841Y-114714959D03*
%TD*%
D12*
%TO.C,LED100*%
X313048800Y-143928400D03*
X313048800Y-147228400D03*
X317948800Y-147228400D03*
X317948800Y-143928400D03*
%TD*%
D13*
%TO.C,C108*%
X160047759Y-151517041D03*
X161249841Y-150314959D03*
%TD*%
%TO.C,C111*%
X186747759Y-151517041D03*
X187949841Y-150314959D03*
%TD*%
D12*
%TO.C,LED174*%
X304148800Y-170628400D03*
X304148800Y-173928400D03*
X309048800Y-173928400D03*
X309048800Y-170628400D03*
%TD*%
%TO.C,LED27*%
X108348800Y-126128400D03*
X108348800Y-129428400D03*
X113248800Y-129428400D03*
X113248800Y-126128400D03*
%TD*%
D13*
%TO.C,C62*%
X195647759Y-133717041D03*
X196849841Y-132514959D03*
%TD*%
%TO.C,C78*%
X115547759Y-142617041D03*
X116749841Y-141414959D03*
%TD*%
D12*
%TO.C,LED26*%
X99448800Y-126128400D03*
X99448800Y-129428400D03*
X104348800Y-129428400D03*
X104348800Y-126128400D03*
%TD*%
%TO.C,LED159*%
X170648800Y-170628400D03*
X170648800Y-173928400D03*
X175548800Y-173928400D03*
X175548800Y-170628400D03*
%TD*%
D13*
%TO.C,C72*%
X284647759Y-133717041D03*
X285849841Y-132514959D03*
%TD*%
%TO.C,C33*%
X160047759Y-124817041D03*
X161249841Y-123614959D03*
%TD*%
%TO.C,C50*%
X311347759Y-124817041D03*
X312549841Y-123614959D03*
%TD*%
D12*
%TO.C,LED158*%
X161748800Y-170628400D03*
X161748800Y-173928400D03*
X166648800Y-173928400D03*
X166648800Y-170628400D03*
%TD*%
D13*
%TO.C,C63*%
X204547759Y-133717041D03*
X205749841Y-132514959D03*
%TD*%
D12*
%TO.C,LED62*%
X197348800Y-135028400D03*
X197348800Y-138328400D03*
X202248800Y-138328400D03*
X202248800Y-135028400D03*
%TD*%
D13*
%TO.C,C164*%
X213447759Y-169317041D03*
X214649841Y-168114959D03*
%TD*%
%TO.C,C23*%
X293547759Y-115917041D03*
X294749841Y-114714959D03*
%TD*%
D12*
%TO.C,LED42*%
X241848800Y-126128400D03*
X241848800Y-129428400D03*
X246748800Y-129428400D03*
X246748800Y-126128400D03*
%TD*%
%TO.C,LED114*%
X215148800Y-152828400D03*
X215148800Y-156128400D03*
X220048800Y-156128400D03*
X220048800Y-152828400D03*
%TD*%
%TO.C,LED63*%
X206248800Y-135028400D03*
X206248800Y-138328400D03*
X211148800Y-138328400D03*
X211148800Y-135028400D03*
%TD*%
%TO.C,LED113*%
X206248800Y-152828400D03*
X206248800Y-156128400D03*
X211148800Y-156128400D03*
X211148800Y-152828400D03*
%TD*%
D13*
%TO.C,C48*%
X293547759Y-124817041D03*
X294749841Y-123614959D03*
%TD*%
D12*
%TO.C,LED76*%
X99448800Y-143928400D03*
X99448800Y-147228400D03*
X104348800Y-147228400D03*
X104348800Y-143928400D03*
%TD*%
D13*
%TO.C,C64*%
X213447759Y-133717041D03*
X214649841Y-132514959D03*
%TD*%
%TO.C,C146*%
X275747759Y-160417041D03*
X276949841Y-159214959D03*
%TD*%
M02*
