%TF.GenerationSoftware,KiCad,Pcbnew,7.0.8*%
%TF.CreationDate,2023-11-11T14:32:32+05:30*%
%TF.ProjectId,DevBoard,44657642-6f61-4726-942e-6b696361645f,rev?*%
%TF.SameCoordinates,Original*%
%TF.FileFunction,Copper,L2,Bot*%
%TF.FilePolarity,Positive*%
%FSLAX46Y46*%
G04 Gerber Fmt 4.6, Leading zero omitted, Abs format (unit mm)*
G04 Created by KiCad (PCBNEW 7.0.8) date 2023-11-11 14:32:32*
%MOMM*%
%LPD*%
G01*
G04 APERTURE LIST*
%TA.AperFunction,ComponentPad*%
%ADD10C,0.800000*%
%TD*%
%TA.AperFunction,ComponentPad*%
%ADD11C,5.400000*%
%TD*%
%TA.AperFunction,SMDPad,CuDef*%
%ADD12R,5.000000X2.500000*%
%TD*%
%TA.AperFunction,SMDPad,CuDef*%
%ADD13R,2.500000X5.000000*%
%TD*%
%TA.AperFunction,ViaPad*%
%ADD14C,0.800000*%
%TD*%
G04 APERTURE END LIST*
D10*
%TO.P,H4,1*%
%TO.N,N/C*%
X323284200Y-178206400D03*
X321259200Y-180231400D03*
X322691091Y-179638291D03*
D11*
X321259200Y-178206400D03*
D10*
X321259200Y-176181400D03*
X319827309Y-179638291D03*
X322691091Y-176774509D03*
X319234200Y-178206400D03*
X319827309Y-176774509D03*
%TD*%
%TO.P,H3,1*%
%TO.N,N/C*%
X97478200Y-178114291D03*
X95453200Y-180139291D03*
X96885091Y-179546182D03*
D11*
X95453200Y-178114291D03*
D10*
X95453200Y-176089291D03*
X94021309Y-179546182D03*
X96885091Y-176682400D03*
X93428200Y-178114291D03*
X94021309Y-176682400D03*
%TD*%
%TO.P,H2,1*%
%TO.N,N/C*%
X320081309Y-111344109D03*
X319488200Y-112776000D03*
X322945091Y-111344109D03*
X320081309Y-114207891D03*
X321513200Y-110751000D03*
D11*
X321513200Y-112776000D03*
D10*
X322945091Y-114207891D03*
X321513200Y-114801000D03*
X323538200Y-112776000D03*
%TD*%
%TO.P,H1,1*%
%TO.N,N/C*%
X97173400Y-112420400D03*
X95148400Y-114445400D03*
X96580291Y-113852291D03*
D11*
X95148400Y-112420400D03*
D10*
X95148400Y-110395400D03*
X93716509Y-113852291D03*
X96580291Y-110988509D03*
X93123400Y-112420400D03*
X93716509Y-110988509D03*
%TD*%
D12*
%TO.P,P2,LedM_+5V,LedM_+5V*%
%TO.N,+5V*%
X137920800Y-111201200D03*
%TD*%
%TO.P,PG4,LedM_GND,LedM_GND*%
%TO.N,GND*%
X207895400Y-178054000D03*
%TD*%
%TO.P,P7,LedM_+5V,LedM_+5V*%
%TO.N,+5V*%
X312920800Y-111201200D03*
%TD*%
%TO.P,PG3,LedM_GND,LedM_GND*%
%TO.N,GND*%
X172895400Y-178054000D03*
%TD*%
%TO.P,P1,LedM_+5V,LedM_+5V*%
%TO.N,+5V*%
X102920800Y-111201200D03*
%TD*%
%TO.P,P4,LedM_+5V,LedM_+5V*%
%TO.N,+5V*%
X207920800Y-111201200D03*
%TD*%
D13*
%TO.P,PD1,LedM_DIN,LedM_DIN*%
%TO.N,/LedMatrix/DIN*%
X94513400Y-145923000D03*
%TD*%
D12*
%TO.P,PG5,LedM_GND,LedM_GND*%
%TO.N,GND*%
X242895400Y-178054000D03*
%TD*%
%TO.P,P3,LedM_+5V,LedM_+5V*%
%TO.N,+5V*%
X172920800Y-111201200D03*
%TD*%
%TO.P,PG7,LedM_GND,LedM_GND*%
%TO.N,GND*%
X312895400Y-178054000D03*
%TD*%
%TO.P,P6,LedM_+5V,LedM_+5V*%
%TO.N,+5V*%
X277920800Y-111201200D03*
%TD*%
%TO.P,P5,LedM_+5V,LedM_+5V*%
%TO.N,+5V*%
X242920800Y-111201200D03*
%TD*%
%TO.P,PG2,LedM_GND,LedM_GND*%
%TO.N,GND*%
X137895400Y-178054000D03*
%TD*%
%TO.P,PG6,LedM_GND,LedM_GND*%
%TO.N,GND*%
X277895400Y-178054000D03*
%TD*%
D13*
%TO.P,PD2,LedM_DOUT,LedM_DOUT*%
%TO.N,/LedMatrix6/DOUT*%
X322580000Y-144805400D03*
%TD*%
D12*
%TO.P,PG1,LedM_GND,LedM_GND*%
%TO.N,GND*%
X102895400Y-178054000D03*
%TD*%
D14*
%TO.N,GND*%
X316534800Y-175869600D03*
X100482400Y-114706400D03*
%TO.N,/LedMatrix/DIN*%
X95097600Y-147523200D03*
X93929200Y-144170400D03*
X93878400Y-145897600D03*
X95046800Y-145897600D03*
X93929200Y-147472400D03*
X94996000Y-144170400D03*
%TO.N,+5V*%
X314452000Y-110540800D03*
X244398800Y-110591600D03*
X171196000Y-110591600D03*
X172821600Y-110591600D03*
X136245600Y-111810800D03*
X174498000Y-111861600D03*
X242824000Y-111861600D03*
X241198400Y-111912400D03*
X277774400Y-110591600D03*
X137871200Y-111760000D03*
X276199600Y-111861600D03*
X312826400Y-110591600D03*
X172872400Y-111810800D03*
X102971600Y-111810800D03*
X171246800Y-111861600D03*
X137820400Y-110540800D03*
X279450800Y-111861600D03*
X139496800Y-111810800D03*
X174447200Y-110540800D03*
X207873600Y-110591600D03*
X207924400Y-111810800D03*
X311251600Y-111861600D03*
X102920800Y-110591600D03*
X276148800Y-110591600D03*
X206248000Y-110591600D03*
X101346000Y-111861600D03*
X314502800Y-111861600D03*
X139446000Y-110490000D03*
X206298800Y-111861600D03*
X277825200Y-111810800D03*
X311200800Y-110591600D03*
X136194800Y-110540800D03*
X241147600Y-110642400D03*
X104546400Y-110540800D03*
X312877200Y-111810800D03*
X244449600Y-111912400D03*
X104597200Y-111861600D03*
X101295200Y-110591600D03*
X279400000Y-110540800D03*
X209499200Y-110540800D03*
X242773200Y-110642400D03*
X209550000Y-111861600D03*
%TO.N,GND*%
X311042800Y-147187600D03*
X310941200Y-138348400D03*
X241198400Y-177444400D03*
X304901600Y-131978400D03*
X215900000Y-158648400D03*
X310839600Y-129407600D03*
X141878800Y-173908400D03*
X213049600Y-173959200D03*
X257448800Y-156179200D03*
X248711200Y-173908400D03*
X233426000Y-113782000D03*
X141878800Y-129407600D03*
X284372800Y-147238400D03*
X109016800Y-140817600D03*
X206959200Y-158648400D03*
X238231359Y-114139041D03*
X209448400Y-178714400D03*
X168548800Y-165120000D03*
X278180800Y-131978400D03*
X118008400Y-123037600D03*
X302152800Y-138348400D03*
X284169600Y-165120000D03*
X137718800Y-177444400D03*
X168548800Y-173959200D03*
X186379600Y-173908400D03*
X301142400Y-114046000D03*
X230829600Y-165069200D03*
X233680000Y-158648400D03*
X292252400Y-114096800D03*
X174498000Y-177393600D03*
X141980400Y-138348400D03*
X126847600Y-123088400D03*
X230931200Y-138348400D03*
X166979600Y-114096800D03*
X292958000Y-165069200D03*
X313740800Y-131978400D03*
X287172400Y-167589200D03*
X213049600Y-129458400D03*
X198120000Y-158597600D03*
X109067600Y-131927600D03*
X248767600Y-120497600D03*
X195326000Y-120497600D03*
X206146400Y-177444400D03*
X126847600Y-131978400D03*
X278180800Y-123088400D03*
X248812800Y-138348400D03*
X126796800Y-140868400D03*
X215950800Y-167589200D03*
X295910000Y-140919200D03*
X242570000Y-123088400D03*
X293161200Y-147187600D03*
X275279600Y-173908400D03*
X174548800Y-178714400D03*
X96113600Y-131927600D03*
X311302400Y-178714400D03*
X106273600Y-156159200D03*
X124048000Y-129407600D03*
X171399200Y-149860000D03*
X171297600Y-140919200D03*
X133045200Y-120497600D03*
X292958000Y-173908400D03*
X162407600Y-140868400D03*
X276148800Y-178714400D03*
X150819600Y-147187600D03*
X221888800Y-173959200D03*
X266592800Y-147187600D03*
X221888800Y-165120000D03*
X95961200Y-140817600D03*
X123946400Y-156179200D03*
X293059600Y-138348400D03*
X126898400Y-149809200D03*
X106125600Y-147228400D03*
X189179200Y-131927600D03*
X233730800Y-149809200D03*
X115092000Y-165028400D03*
X131521200Y-113741200D03*
X96012000Y-167589200D03*
X231032800Y-147187600D03*
X168548800Y-129458400D03*
X188874400Y-113832800D03*
X233629200Y-140868400D03*
X293014400Y-120497600D03*
X195168000Y-156179200D03*
X135788400Y-131978400D03*
X109067600Y-158597600D03*
X132887200Y-156179200D03*
X278231600Y-149809200D03*
X115214400Y-156108400D03*
X124251200Y-147187600D03*
X279400000Y-178714400D03*
X204058000Y-165120000D03*
X168605200Y-120548400D03*
X239826800Y-120497600D03*
X257550400Y-173908400D03*
X102819200Y-178612800D03*
X171348400Y-158699200D03*
X177489600Y-138348400D03*
X314553600Y-178714400D03*
X304952400Y-149809200D03*
X284169600Y-173959200D03*
X206908400Y-140868400D03*
X168752000Y-147238400D03*
X266389600Y-129407600D03*
X260400800Y-167589200D03*
X242824000Y-177444400D03*
X153619200Y-167589200D03*
X257652000Y-138348400D03*
X204159600Y-138399200D03*
X153619200Y-149809200D03*
X172923200Y-178663600D03*
X266491200Y-138348400D03*
X106375200Y-164998400D03*
X195269600Y-173908400D03*
X251510800Y-167589200D03*
X239872000Y-138348400D03*
X195269600Y-165069200D03*
X284068000Y-156230000D03*
X239770400Y-129407600D03*
X186436000Y-120497600D03*
X132988800Y-129407600D03*
X106476800Y-129438400D03*
X224739200Y-140868400D03*
X195472800Y-147187600D03*
X162255200Y-113782000D03*
X312877200Y-177444400D03*
X144678400Y-123088400D03*
X109118400Y-149758400D03*
X153568400Y-158648400D03*
X213049600Y-165120000D03*
X251460000Y-158648400D03*
X144678400Y-131978400D03*
X177388000Y-173908400D03*
X224840800Y-149809200D03*
X287121600Y-131978400D03*
X180340000Y-167538400D03*
X153365200Y-113731200D03*
X315671200Y-147269200D03*
X150616400Y-129407600D03*
X171348400Y-123139200D03*
X257606800Y-120497600D03*
X189230000Y-149758400D03*
X202620559Y-114088241D03*
X260350000Y-158648400D03*
X137769600Y-178663600D03*
X197764400Y-113832800D03*
X109067600Y-123037600D03*
X186582800Y-147187600D03*
X177591200Y-147187600D03*
X241249200Y-178714400D03*
X159658800Y-129407600D03*
X269036800Y-113832800D03*
X242570000Y-131978400D03*
X251409200Y-140868400D03*
X221787200Y-156230000D03*
X277774400Y-178663600D03*
X239668800Y-156179200D03*
X109118400Y-167538400D03*
X222092000Y-147238400D03*
X124149600Y-138348400D03*
X139344400Y-177393600D03*
X180289200Y-158597600D03*
X224790000Y-123088400D03*
X287070800Y-140868400D03*
X189230000Y-167538400D03*
X133192000Y-147187600D03*
X115254400Y-173928400D03*
X204261200Y-147238400D03*
X242874800Y-178663600D03*
X269240000Y-123139200D03*
X310896000Y-120497600D03*
X207010000Y-149809200D03*
X206959200Y-131978400D03*
X310839600Y-165069200D03*
X221945200Y-120548400D03*
X153517600Y-140868400D03*
X260350000Y-123088400D03*
X108864400Y-113731200D03*
X215900000Y-131978400D03*
X136093200Y-177444400D03*
X269240000Y-132029200D03*
X117703600Y-113741200D03*
X314502800Y-177393600D03*
X248711200Y-165069200D03*
X239770400Y-165069200D03*
X132988800Y-165069200D03*
X159715200Y-120497600D03*
X117957600Y-140817600D03*
X275336000Y-120497600D03*
X159760400Y-138348400D03*
X150616400Y-165069200D03*
X269290800Y-149860000D03*
X171246800Y-177444400D03*
X115366800Y-129438400D03*
X315722000Y-129438400D03*
X275279600Y-165069200D03*
X135839200Y-167589200D03*
X98653600Y-148844000D03*
X302051200Y-165069200D03*
X204058000Y-129458400D03*
X135788400Y-123088400D03*
X292958000Y-129407600D03*
X101142800Y-177393600D03*
X248914400Y-147187600D03*
X230728000Y-156179200D03*
X260299200Y-140868400D03*
X213151200Y-138399200D03*
X118008400Y-158597600D03*
X126898400Y-167589200D03*
X186278000Y-156179200D03*
X315671200Y-156159200D03*
X302107600Y-120497600D03*
X159862000Y-147187600D03*
X273943759Y-114291441D03*
X101193600Y-178663600D03*
X198120000Y-131927600D03*
X153568400Y-131978400D03*
X309981600Y-114046000D03*
X302051200Y-173908400D03*
X153568400Y-123088400D03*
X118059200Y-167538400D03*
X177388000Y-129407600D03*
X162458400Y-158648400D03*
X171399200Y-167640000D03*
X213106000Y-120548400D03*
X242519200Y-140868400D03*
X215849200Y-140868400D03*
X124104400Y-120497600D03*
X248711200Y-129407600D03*
X180238400Y-140817600D03*
X177444400Y-120497600D03*
X295960800Y-132029200D03*
X239973600Y-147187600D03*
X139395200Y-178714400D03*
X203956400Y-156230000D03*
X95859600Y-158648400D03*
X150672800Y-120497600D03*
X141878800Y-165069200D03*
X126644400Y-113680400D03*
X244449600Y-177393600D03*
X124048000Y-165069200D03*
X278130000Y-140868400D03*
X266288000Y-156179200D03*
X233730800Y-167589200D03*
X186379600Y-129407600D03*
X162458400Y-131978400D03*
X244500400Y-178714400D03*
X215950800Y-149809200D03*
X230886000Y-120497600D03*
X144678400Y-158648400D03*
X104394000Y-177342800D03*
X302254400Y-147187600D03*
X115265200Y-147218400D03*
X296011600Y-167640000D03*
X213252800Y-147238400D03*
X260096000Y-113832800D03*
X144627600Y-140868400D03*
X106426000Y-120091200D03*
X284271200Y-138399200D03*
X224485200Y-113832800D03*
X266446000Y-120497600D03*
X315772800Y-120548400D03*
X224840800Y-167589200D03*
X315874400Y-138328400D03*
X162509200Y-167589200D03*
X104444800Y-178663600D03*
X168447200Y-156230000D03*
X195371200Y-138348400D03*
X180289200Y-131927600D03*
X195269600Y-129407600D03*
X284226000Y-120548400D03*
X180340000Y-149758400D03*
X275279600Y-129407600D03*
X313791600Y-167589200D03*
X287121600Y-158648400D03*
X204058000Y-173959200D03*
X135788400Y-158648400D03*
X150718000Y-138348400D03*
X242620800Y-167589200D03*
X162458400Y-123088400D03*
X221888800Y-129458400D03*
X313791600Y-149809200D03*
X118059200Y-149758400D03*
X141777200Y-156179200D03*
X141935200Y-120497600D03*
X144424400Y-113782000D03*
X310839600Y-173908400D03*
X276098000Y-177444400D03*
X260400800Y-149809200D03*
X124048000Y-173908400D03*
X251460000Y-131978400D03*
X133090400Y-138348400D03*
X150514800Y-156179200D03*
X257550400Y-129407600D03*
X278180800Y-158648400D03*
X206959200Y-123088400D03*
X144729200Y-149809200D03*
X230829600Y-129407600D03*
X106324400Y-173888400D03*
X312928000Y-178663600D03*
X168650400Y-138399200D03*
X209397600Y-177393600D03*
X233680000Y-131978400D03*
X287121600Y-123088400D03*
X198170800Y-149758400D03*
X275482800Y-147187600D03*
X186481200Y-138348400D03*
X198069200Y-140817600D03*
X311251600Y-177444400D03*
X275178000Y-156179200D03*
X230829600Y-173908400D03*
X189128400Y-140817600D03*
X135737600Y-140868400D03*
X95918959Y-122978241D03*
X283210000Y-113944400D03*
X221990400Y-138399200D03*
X313740800Y-123088400D03*
X224790000Y-131978400D03*
X313690000Y-140868400D03*
X242570000Y-158648400D03*
X242620800Y-149809200D03*
X304952400Y-167589200D03*
X118008400Y-131927600D03*
X278231600Y-167589200D03*
X172872400Y-177444400D03*
X162509200Y-149809200D03*
X132988800Y-173908400D03*
X189179200Y-123037600D03*
X115143600Y-120111200D03*
X257550400Y-165069200D03*
X215900000Y-123088400D03*
X313740800Y-158648400D03*
X248609600Y-156179200D03*
X277723600Y-177444400D03*
X215646000Y-113782000D03*
X207772000Y-177444400D03*
X189179200Y-158597600D03*
X207822800Y-178663600D03*
X251460000Y-123088400D03*
X251510800Y-149809200D03*
X269189200Y-140919200D03*
X304850800Y-140868400D03*
X159658800Y-173908400D03*
X159557200Y-156179200D03*
X310738000Y-156179200D03*
X106084800Y-138328400D03*
X304901600Y-158648400D03*
X292856400Y-156179200D03*
X304901600Y-123088400D03*
X177286400Y-156179200D03*
X136144000Y-178714400D03*
X180289200Y-123037600D03*
X296011600Y-149860000D03*
X171297600Y-178714400D03*
X206197200Y-178714400D03*
X150616400Y-173908400D03*
X233680000Y-123088400D03*
X198120000Y-123037600D03*
X239770400Y-173908400D03*
X295960800Y-158699200D03*
X315772800Y-164998400D03*
X186379600Y-165069200D03*
X171348400Y-132029200D03*
X287172400Y-149809200D03*
X251256800Y-113832800D03*
X284169600Y-129458400D03*
X179984400Y-113782000D03*
X266389600Y-165069200D03*
X135839200Y-149809200D03*
X301949600Y-156179200D03*
X266389600Y-173908400D03*
X159658800Y-165069200D03*
X279349200Y-177393600D03*
X295960800Y-123139200D03*
X126847600Y-158648400D03*
X260350000Y-131978400D03*
X198170800Y-167538400D03*
X142082000Y-147187600D03*
X177388000Y-165069200D03*
X212948000Y-156230000D03*
X144729200Y-167589200D03*
X204114400Y-120548400D03*
X102768400Y-177393600D03*
X302051200Y-129407600D03*
X275381200Y-138348400D03*
X207010000Y-167589200D03*
X269240000Y-158699200D03*
X257753600Y-147187600D03*
X269290800Y-167640000D03*
X224790000Y-158648400D03*
X115163600Y-138328400D03*
%TO.N,/LedMatrix6/DOUT*%
X322021200Y-143002000D03*
X322021200Y-146304000D03*
X323189600Y-146354800D03*
X321970400Y-144729200D03*
X323138800Y-144729200D03*
X323088000Y-143002000D03*
%TD*%
%TA.AperFunction,Conductor*%
%TO.N,GND*%
G36*
X315324418Y-113182380D02*
G01*
X315391448Y-113202096D01*
X315399734Y-113207918D01*
X322683624Y-118783861D01*
X322724891Y-118840242D01*
X322732250Y-118882625D01*
X322681749Y-139638463D01*
X322661901Y-139705454D01*
X322632500Y-139737097D01*
X320395600Y-141427199D01*
X320344800Y-148234400D01*
X323042596Y-150432604D01*
X323082134Y-150490211D01*
X323088268Y-150528164D01*
X323189408Y-172576751D01*
X323170031Y-172643880D01*
X323164609Y-172651720D01*
X322312400Y-173788000D01*
X322256429Y-173829821D01*
X322213200Y-173837600D01*
X318465200Y-173837600D01*
X315752778Y-180769344D01*
X315710018Y-180824600D01*
X315644171Y-180847968D01*
X315637537Y-180848158D01*
X99809840Y-181254327D01*
X99742764Y-181234768D01*
X99739357Y-181232508D01*
X99012150Y-180732553D01*
X98968059Y-180678352D01*
X98958400Y-180630372D01*
X98958400Y-175971199D01*
X94490946Y-172909237D01*
X94446777Y-172855099D01*
X94437049Y-172807243D01*
X94386533Y-150933757D01*
X94406063Y-150866675D01*
X94430528Y-150838736D01*
X96672400Y-148945600D01*
X96672400Y-142798800D01*
X96672399Y-142798799D01*
X94039908Y-141209370D01*
X93992692Y-141157868D01*
X93980000Y-141103218D01*
X93980000Y-118313762D01*
X93999685Y-118246723D01*
X94016319Y-118226081D01*
X95554800Y-116687600D01*
X99176167Y-113116528D01*
X99237720Y-113083475D01*
X99263279Y-113080823D01*
X315324418Y-113182380D01*
G37*
%TD.AperFunction*%
%TD*%
M02*
