M48
; DRILL file {KiCad 7.0.8} date Sat Nov 11 14:33:21 2023
; FORMAT={-:-/ absolute / metric / decimal}
; #@! TF.CreationDate,2023-11-11T14:33:21+05:30
; #@! TF.GenerationSoftware,Kicad,Pcbnew,7.0.8
; #@! TF.FileFunction,Plated,1,2,PTH
FMAT,2
METRIC
; #@! TA.AperFunction,Plated,PTH,ViaDrill
T1C0.400
; #@! TA.AperFunction,Plated,PTH,ComponentDrill
T2C0.500
; #@! TA.AperFunction,Plated,PTH,ComponentDrill
T3C2.700
%
G90
G05
T1
X93.878Y-145.898
X93.929Y-144.17
X93.929Y-147.472
X94.996Y-144.17
X95.047Y-145.898
X95.098Y-147.523
X95.86Y-158.648
X95.919Y-122.978
X95.961Y-140.818
X96.012Y-167.589
X96.114Y-131.928
X98.654Y-148.844
X100.482Y-114.706
X101.143Y-177.394
X101.194Y-178.664
X101.295Y-110.592
X101.346Y-111.862
X102.768Y-177.394
X102.819Y-178.613
X102.921Y-110.592
X102.972Y-111.811
X104.394Y-177.343
X104.445Y-178.664
X104.546Y-110.541
X104.597Y-111.862
X106.085Y-138.328
X106.126Y-147.228
X106.274Y-156.159
X106.324Y-173.888
X106.375Y-164.998
X106.426Y-120.091
X106.477Y-129.438
X108.864Y-113.731
X109.017Y-140.818
X109.068Y-123.038
X109.068Y-131.928
X109.068Y-158.598
X109.118Y-149.758
X109.118Y-167.538
X115.092Y-165.028
X115.144Y-120.111
X115.164Y-138.328
X115.214Y-156.108
X115.254Y-173.928
X115.265Y-147.218
X115.367Y-129.438
X117.704Y-113.741
X117.958Y-140.818
X118.008Y-123.038
X118.008Y-131.928
X118.008Y-158.598
X118.059Y-149.758
X118.059Y-167.538
X123.946Y-156.179
X124.048Y-129.408
X124.048Y-165.069
X124.048Y-173.908
X124.104Y-120.498
X124.15Y-138.348
X124.251Y-147.188
X126.644Y-113.68
X126.797Y-140.868
X126.848Y-123.088
X126.848Y-131.978
X126.848Y-158.648
X126.898Y-149.809
X126.898Y-167.589
X131.521Y-113.741
X132.887Y-156.179
X132.989Y-129.408
X132.989Y-165.069
X132.989Y-173.908
X133.045Y-120.498
X133.09Y-138.348
X133.192Y-147.188
X135.738Y-140.868
X135.788Y-123.088
X135.788Y-131.978
X135.788Y-158.648
X135.839Y-149.809
X135.839Y-167.589
X136.093Y-177.444
X136.144Y-178.714
X136.195Y-110.541
X136.246Y-111.811
X137.719Y-177.444
X137.77Y-178.664
X137.82Y-110.541
X137.871Y-111.76
X139.344Y-177.394
X139.395Y-178.714
X139.446Y-110.49
X139.497Y-111.811
X141.777Y-156.179
X141.879Y-129.408
X141.879Y-165.069
X141.879Y-173.908
X141.935Y-120.498
X141.98Y-138.348
X142.082Y-147.188
X144.424Y-113.782
X144.628Y-140.868
X144.678Y-123.088
X144.678Y-131.978
X144.678Y-158.648
X144.729Y-149.809
X144.729Y-167.589
X150.515Y-156.179
X150.616Y-129.408
X150.616Y-165.069
X150.616Y-173.908
X150.673Y-120.498
X150.718Y-138.348
X150.82Y-147.188
X153.365Y-113.731
X153.518Y-140.868
X153.568Y-123.088
X153.568Y-131.978
X153.568Y-158.648
X153.619Y-149.809
X153.619Y-167.589
X159.557Y-156.179
X159.659Y-129.408
X159.659Y-165.069
X159.659Y-173.908
X159.715Y-120.498
X159.76Y-138.348
X159.862Y-147.188
X162.255Y-113.782
X162.408Y-140.868
X162.458Y-123.088
X162.458Y-131.978
X162.458Y-158.648
X162.509Y-149.809
X162.509Y-167.589
X166.98Y-114.097
X168.447Y-156.23
X168.549Y-129.458
X168.549Y-165.12
X168.549Y-173.959
X168.605Y-120.548
X168.65Y-138.399
X168.752Y-147.238
X171.196Y-110.592
X171.247Y-111.862
X171.247Y-177.444
X171.298Y-140.919
X171.298Y-178.714
X171.348Y-123.139
X171.348Y-132.029
X171.348Y-158.699
X171.399Y-149.86
X171.399Y-167.64
X172.822Y-110.592
X172.872Y-111.811
X172.872Y-177.444
X172.923Y-178.664
X174.447Y-110.541
X174.498Y-111.862
X174.498Y-177.394
X174.549Y-178.714
X177.286Y-156.179
X177.388Y-129.408
X177.388Y-165.069
X177.388Y-173.908
X177.444Y-120.498
X177.49Y-138.348
X177.591Y-147.188
X179.984Y-113.782
X180.238Y-140.818
X180.289Y-123.038
X180.289Y-131.928
X180.289Y-158.598
X180.34Y-149.758
X180.34Y-167.538
X186.278Y-156.179
X186.38Y-129.408
X186.38Y-165.069
X186.38Y-173.908
X186.436Y-120.498
X186.481Y-138.348
X186.583Y-147.188
X188.874Y-113.833
X189.128Y-140.818
X189.179Y-123.038
X189.179Y-131.928
X189.179Y-158.598
X189.23Y-149.758
X189.23Y-167.538
X195.168Y-156.179
X195.27Y-129.408
X195.27Y-165.069
X195.27Y-173.908
X195.326Y-120.498
X195.371Y-138.348
X195.473Y-147.188
X197.764Y-113.833
X198.069Y-140.818
X198.12Y-123.038
X198.12Y-131.928
X198.12Y-158.598
X198.171Y-149.758
X198.171Y-167.538
X202.621Y-114.088
X203.956Y-156.23
X204.058Y-129.458
X204.058Y-165.12
X204.058Y-173.959
X204.114Y-120.548
X204.16Y-138.399
X204.261Y-147.238
X206.146Y-177.444
X206.197Y-178.714
X206.248Y-110.592
X206.299Y-111.862
X206.908Y-140.868
X206.959Y-123.088
X206.959Y-131.978
X206.959Y-158.648
X207.01Y-149.809
X207.01Y-167.589
X207.772Y-177.444
X207.823Y-178.664
X207.874Y-110.592
X207.924Y-111.811
X209.398Y-177.394
X209.448Y-178.714
X209.499Y-110.541
X209.55Y-111.862
X212.948Y-156.23
X213.05Y-129.458
X213.05Y-165.12
X213.05Y-173.959
X213.106Y-120.548
X213.151Y-138.399
X213.253Y-147.238
X215.646Y-113.782
X215.849Y-140.868
X215.9Y-123.088
X215.9Y-131.978
X215.9Y-158.648
X215.951Y-149.809
X215.951Y-167.589
X221.787Y-156.23
X221.889Y-129.458
X221.889Y-165.12
X221.889Y-173.959
X221.945Y-120.548
X221.99Y-138.399
X222.092Y-147.238
X224.485Y-113.833
X224.739Y-140.868
X224.79Y-123.088
X224.79Y-131.978
X224.79Y-158.648
X224.841Y-149.809
X224.841Y-167.589
X230.728Y-156.179
X230.83Y-129.408
X230.83Y-165.069
X230.83Y-173.908
X230.886Y-120.498
X230.931Y-138.348
X231.033Y-147.188
X233.426Y-113.782
X233.629Y-140.868
X233.68Y-123.088
X233.68Y-131.978
X233.68Y-158.648
X233.731Y-149.809
X233.731Y-167.589
X238.231Y-114.139
X239.669Y-156.179
X239.77Y-129.408
X239.77Y-165.069
X239.77Y-173.908
X239.827Y-120.498
X239.872Y-138.348
X239.974Y-147.188
X241.148Y-110.642
X241.198Y-111.912
X241.198Y-177.444
X241.249Y-178.714
X242.519Y-140.868
X242.57Y-123.088
X242.57Y-131.978
X242.57Y-158.648
X242.621Y-149.809
X242.621Y-167.589
X242.773Y-110.642
X242.824Y-111.862
X242.824Y-177.444
X242.875Y-178.664
X244.399Y-110.592
X244.45Y-111.912
X244.45Y-177.394
X244.5Y-178.714
X248.61Y-156.179
X248.711Y-129.408
X248.711Y-165.069
X248.711Y-173.908
X248.768Y-120.498
X248.813Y-138.348
X248.914Y-147.188
X251.257Y-113.833
X251.409Y-140.868
X251.46Y-123.088
X251.46Y-131.978
X251.46Y-158.648
X251.511Y-149.809
X251.511Y-167.589
X257.449Y-156.179
X257.55Y-129.408
X257.55Y-165.069
X257.55Y-173.908
X257.607Y-120.498
X257.652Y-138.348
X257.754Y-147.188
X260.096Y-113.833
X260.299Y-140.868
X260.35Y-123.088
X260.35Y-131.978
X260.35Y-158.648
X260.401Y-149.809
X260.401Y-167.589
X266.288Y-156.179
X266.39Y-129.408
X266.39Y-165.069
X266.39Y-173.908
X266.446Y-120.498
X266.491Y-138.348
X266.593Y-147.188
X269.037Y-113.833
X269.189Y-140.919
X269.24Y-123.139
X269.24Y-132.029
X269.24Y-158.699
X269.291Y-149.86
X269.291Y-167.64
X273.944Y-114.291
X275.178Y-156.179
X275.28Y-129.408
X275.28Y-165.069
X275.28Y-173.908
X275.336Y-120.498
X275.381Y-138.348
X275.483Y-147.188
X276.098Y-177.444
X276.149Y-110.592
X276.149Y-178.714
X276.2Y-111.862
X277.724Y-177.444
X277.774Y-110.592
X277.774Y-178.664
X277.825Y-111.811
X278.13Y-140.868
X278.181Y-123.088
X278.181Y-131.978
X278.181Y-158.648
X278.232Y-149.809
X278.232Y-167.589
X279.349Y-177.394
X279.4Y-110.541
X279.4Y-178.714
X279.451Y-111.862
X283.21Y-113.944
X284.068Y-156.23
X284.17Y-129.458
X284.17Y-165.12
X284.17Y-173.959
X284.226Y-120.548
X284.271Y-138.399
X284.373Y-147.238
X287.071Y-140.868
X287.122Y-123.088
X287.122Y-131.978
X287.122Y-158.648
X287.172Y-149.809
X287.172Y-167.589
X292.252Y-114.097
X292.856Y-156.179
X292.958Y-129.408
X292.958Y-165.069
X292.958Y-173.908
X293.014Y-120.498
X293.06Y-138.348
X293.161Y-147.188
X295.91Y-140.919
X295.961Y-123.139
X295.961Y-132.029
X295.961Y-158.699
X296.012Y-149.86
X296.012Y-167.64
X301.142Y-114.046
X301.95Y-156.179
X302.051Y-129.408
X302.051Y-165.069
X302.051Y-173.908
X302.108Y-120.498
X302.153Y-138.348
X302.254Y-147.188
X304.851Y-140.868
X304.902Y-123.088
X304.902Y-131.978
X304.902Y-158.648
X304.952Y-149.809
X304.952Y-167.589
X309.982Y-114.046
X310.738Y-156.179
X310.84Y-129.408
X310.84Y-165.069
X310.84Y-173.908
X310.896Y-120.498
X310.941Y-138.348
X311.043Y-147.188
X311.201Y-110.592
X311.252Y-111.862
X311.252Y-177.444
X311.302Y-178.714
X312.826Y-110.592
X312.877Y-111.811
X312.877Y-177.444
X312.928Y-178.664
X313.69Y-140.868
X313.741Y-123.088
X313.741Y-131.978
X313.741Y-158.648
X313.792Y-149.809
X313.792Y-167.589
X314.452Y-110.541
X314.503Y-111.862
X314.503Y-177.394
X314.554Y-178.714
X315.671Y-147.269
X315.671Y-156.159
X315.722Y-129.438
X315.773Y-120.548
X315.773Y-164.998
X315.874Y-138.328
X316.535Y-175.87
X321.97Y-144.729
X322.021Y-143.002
X322.021Y-146.304
X323.088Y-143.002
X323.139Y-144.729
X323.19Y-146.355
T2
X93.123Y-112.42
X93.428Y-178.114
X93.717Y-110.989
X93.717Y-113.852
X94.021Y-176.682
X94.021Y-179.546
X95.148Y-110.395
X95.148Y-114.445
X95.453Y-176.089
X95.453Y-180.139
X96.58Y-110.989
X96.58Y-113.852
X96.885Y-176.682
X96.885Y-179.546
X97.173Y-112.42
X97.478Y-178.114
X319.234Y-178.206
X319.488Y-112.776
X319.827Y-176.775
X319.827Y-179.638
X320.081Y-111.344
X320.081Y-114.208
X321.259Y-176.181
X321.259Y-180.231
X321.513Y-110.751
X321.513Y-114.801
X322.691Y-176.775
X322.691Y-179.638
X322.945Y-111.344
X322.945Y-114.208
X323.284Y-178.206
X323.538Y-112.776
T3
X95.148Y-112.42
X95.453Y-178.114
X321.259Y-178.206
X321.513Y-112.776
T0
M30
